<svg width="25" height="24" viewBox="0 0 25 24" fill="none" xmlns="http://www.w3.org/2000/svg">
<path d="M10.9999 12C10.9999 12.8284 11.6715 13.5 12.4999 13.5C13.3284 13.5 13.9999 12.8284 13.9999 12C13.9999 11.1716 13.3284 10.5 12.4999 10.5C11.6715 10.5 10.9999 11.1716 10.9999 12Z" fill="#12221A" stroke="#12221A" stroke-linecap="round" stroke-linejoin="round"/>
<path d="M10.9999 19.5C10.9999 20.3284 11.6715 21 12.4999 21C13.3284 21 13.9999 20.3284 13.9999 19.5C13.9999 18.6716 13.3284 18 12.4999 18C11.6715 18 10.9999 18.6716 10.9999 19.5Z" fill="#12221A" stroke="#12221A" stroke-linecap="round" stroke-linejoin="round"/>
<path d="M10.9999 4.5C10.9999 5.32843 11.6715 6 12.4999 6C13.3284 6 13.9999 5.32843 13.9999 4.5C13.9999 3.67157 13.3284 3 12.4999 3C11.6715 3 10.9999 3.67157 10.9999 4.5Z" fill="#12221A" stroke="#12221A" stroke-linecap="round" stroke-linejoin="round"/>
</svg>
