<svg width="182" height="94" viewBox="0 0 182 94" fill="none" xmlns="http://www.w3.org/2000/svg">
<g clip-path="url(#clip0_4290_61657)">
<mask id="mask0_4290_61657" style="mask-type:luminance" maskUnits="userSpaceOnUse" x="0" y="41" width="32" height="44">
<path d="M31.4433 41.9005H0V84.538H31.4433V41.9005Z" fill="white"/>
</mask>
<g mask="url(#mask0_4290_61657)">
<path d="M27.4223 61.5042C27.4223 61.5042 25.9134 59.9986 22.0754 59.5922C19.7507 59.3413 17.4187 59.92 15.2944 61.2748C14.4915 61.9247 13.651 62.478 12.7822 62.9287C11.7989 63.3493 11.6633 62.2691 11.6633 62.2691C11.6633 62.2691 11.4768 61.9727 11.8124 60.5482C12.1482 59.1239 14.362 58.2968 14.362 58.2968C14.362 58.2968 19.7665 56.3036 21.2075 55.9595C22.0256 55.831 22.8254 55.5314 23.5808 55.0704C24.1877 54.6737 26.6322 53.0723 27.0086 49.6977C27.2527 47.5514 26.4627 45.8736 26.2457 45.1806C25.2658 42.064 21.1804 41.9206 21.1804 41.9206H0.0135803V84.5581H16.4947C24.5776 84.5581 28.4054 81.4512 30.138 77.6511C31.0554 75.6653 31.5127 73.3269 31.4467 70.959C31.2297 65.3426 27.9376 62.0252 27.4223 61.5042ZM24.1368 73.3107C24.1368 82.6987 15.6606 82.9711 15.6606 82.9711L7.64555 82.9999V43.4455C8.54403 43.4216 12.6329 43.3307 15.1046 43.4455C15.4379 43.4556 15.7687 43.5295 16.0878 43.6653C17.2779 44.172 18.4205 45.6395 18.7629 47.1643C19.2681 49.43 17.8442 53.0006 15.4098 54.774C12.2837 57.0493 11.1818 59.4488 11.1818 59.4488C10.987 60.0274 10.8392 60.6351 10.7411 61.2605C10.5309 62.5654 10.6258 64.1524 10.9242 64.8981C12.0566 67.7182 18.3018 62.986 21.7737 66.4563C22.8214 67.4984 23.8012 69.4581 24.1368 73.3107Z" fill="#213E28"/>
</g>
<path d="M41.1589 83.8127V52.9349H35.4856V83.8127H41.1589Z" fill="#213E28"/>
<path d="M60.3217 84.2075C68.5689 84.2075 74.82 79.7851 74.82 73.5068C74.82 67.2681 68.5689 62.8458 60.3217 62.8458C52.0745 62.8458 45.8234 67.2681 45.8234 73.5068C45.8234 79.7851 52.0745 84.2075 60.3217 84.2075ZM60.3217 83.6942C55.0161 83.6942 51.6542 79.5482 51.6542 73.5068C51.6542 67.0312 55.2788 63.3591 60.3217 63.3591C65.5748 63.3591 68.9892 67.5051 68.9892 73.5068C68.9892 80.022 65.3121 83.6942 60.3217 83.6942Z" fill="#213E28"/>
<path d="M92.8966 84.2075C101.144 84.2075 107.395 79.7851 107.395 73.5068C107.395 67.2681 101.144 62.8458 92.8966 62.8458C84.6494 62.8458 78.3982 67.2681 78.3982 73.5068C78.3982 79.7851 84.6494 84.2075 92.8966 84.2075ZM92.8966 83.6942C87.5911 83.6942 84.2291 79.5482 84.2291 73.5068C84.2291 67.0312 87.8537 63.3591 92.8966 63.3591C98.1496 63.3591 101.564 67.5051 101.564 73.5068C101.564 80.022 97.8869 83.6942 92.8966 83.6942Z" fill="#213E28"/>
<path d="M126.154 83.8127H131.828V68.5711C131.828 66.1625 133.561 64.5832 136.187 64.5832C138.71 64.5832 140.39 66.1625 140.39 68.4922V83.8127H146.063V68.6896C146.063 65.2148 142.964 62.8458 138.499 62.8458C135.084 62.8458 132.405 64.4647 131.459 66.6759C130.515 64.3462 127.888 62.8458 124.368 62.8458C121.269 62.8458 118.853 64.1092 117.75 66.0836V63.2406H112.076V83.8127H117.75V68.4132C117.75 66.1625 119.483 64.5832 122.004 64.5832C124.474 64.5832 126.154 66.1625 126.154 68.4132V83.8127Z" fill="#213E28"/>
<path d="M157.197 83.8127V52.9349H151.524V83.8127H157.197Z" fill="#213E28"/>
<path d="M161.179 63.2406L171.947 84.0495L167.535 94H168.271L181.98 63.2406H181.245L174.574 78.1661L167.01 63.2406H161.179Z" fill="#213E28"/>
<path d="M96.6815 22.017H96.6814C92.5695 22.017 89.2362 25.3508 89.2362 29.4633V45.6509C89.2362 49.7633 92.5695 53.0971 96.6814 53.0971H96.6815C100.793 53.0971 104.127 49.7633 104.127 45.6509V29.4633C104.127 25.3508 100.793 22.017 96.6815 22.017Z" fill="url(#paint0_linear_4290_61657)"/>
<path d="M117.399 0H117.399C113.287 0 109.953 3.33381 109.953 7.44627V45.6489C109.953 49.7614 113.287 53.0952 117.399 53.0952C121.511 53.0952 124.844 49.7614 124.844 45.6489V7.44627C124.844 3.33381 121.511 0 117.399 0Z" fill="url(#paint1_linear_4290_61657)"/>
<path d="M75.9641 53.0972C80.076 53.0972 83.4094 49.7634 83.4094 45.6509C83.4094 41.5385 80.076 38.2047 75.9641 38.2047C71.8522 38.2047 68.5188 41.5385 68.5188 45.6509C68.5188 49.7634 71.8522 53.0972 75.9641 53.0972Z" fill="#A5F33C"/>
<path d="M96.6815 36.9096C100.793 36.9096 104.127 33.5758 104.127 29.4634C104.127 25.3509 100.793 22.0171 96.6815 22.0171C92.5696 22.0171 89.2363 25.3509 89.2363 29.4634C89.2363 33.5758 92.5696 36.9096 96.6815 36.9096Z" fill="#A5F33C"/>
<path d="M117.399 14.8925C121.511 14.8925 124.844 11.5587 124.844 7.44627C124.844 3.33381 121.511 0 117.399 0C113.287 0 109.954 3.33381 109.954 7.44627C109.954 11.5587 113.287 14.8925 117.399 14.8925Z" fill="#A5F33C"/>
</g>
<defs>
<linearGradient id="paint0_linear_4290_61657" x1="97.0052" y1="32.7009" x2="96.6814" y2="53.0971" gradientUnits="userSpaceOnUse">
<stop stop-color="#A5F33C" stop-opacity="0.29"/>
<stop offset="1" stop-color="#A6F141"/>
</linearGradient>
<linearGradient id="paint1_linear_4290_61657" x1="117.722" y1="11.3313" x2="117.399" y2="53.0952" gradientUnits="userSpaceOnUse">
<stop stop-color="#A6F141" stop-opacity="0.29"/>
<stop offset="1" stop-color="#A5F33C"/>
</linearGradient>
<clipPath id="clip0_4290_61657">
<rect width="182" height="94" fill="white"/>
</clipPath>
</defs>
</svg>
