<svg width="192" height="55" viewBox="0 0 192 55" fill="none" xmlns="http://www.w3.org/2000/svg">
<path d="M38.9665 16.5269V45H37.4891L33.3256 40.7022L26.2073 33.5839L22.0438 29.4204V45H16V16.3926H17.4774L32.9227 31.8379V16.5269H38.9665Z" fill="white"/>
<path d="M46.8503 16.3926V17.467V22.3021H72.2344V16.3926H46.8503ZM52.8942 32.6437H69.6826V26.5999H52.8942H46.8503V32.6437H52.8942ZM46.8503 38.6876V39.762V44.5971H72.2344V38.5533H52.8942H46.8503V38.6876Z" fill="white"/>
<path d="M109.262 44.7314H101.741L101.338 44.3285L97.5776 39.0905L94.6228 35.1956V35.0613L92.071 38.6876L88.0418 44.3285L87.6389 44.7314H80.1177L81.4607 42.9854L82.9381 40.8365L84.2812 39.0905L90.8622 30.0919L82.1323 18.1386L80.7892 16.3926H88.3104L88.7133 16.7955L94.6228 24.9882L100.667 16.7955L101.07 16.3926H108.456L107.248 18.1386L98.3834 30.0919L107.919 42.9854L109.262 44.7314Z" fill="white"/>
<path d="M136.62 16.3926V31.9722C136.62 35.5985 133.665 38.6876 130.173 38.8219C130.039 38.8219 130.039 38.8219 129.905 38.8219C129.77 38.8219 129.77 38.8219 129.636 38.8219C126.01 38.6876 123.189 35.5985 123.189 31.9722V16.3926H117.146V34.1211C117.146 36.4043 117.951 38.5533 119.429 40.1649C119.966 40.8365 120.637 41.3737 121.309 41.9109C123.727 43.7912 126.681 44.7314 129.905 44.7314C132.994 44.7314 135.949 43.7912 138.5 41.9109C139.172 41.3737 139.843 40.8365 140.381 40.2992C141.992 38.6876 142.798 36.5386 142.798 34.2554V16.3926H136.62Z" fill="white"/>
<path d="M150.682 45H156.726V35.4642L150.682 29.4204V45ZM176.2 23.5109V16.3926H174.857L163.441 27.8087L157.8 22.1678L152.159 16.3926H150.682V23.3765L156.726 29.4204L159.546 32.2408L163.575 36.27L164.381 35.4642L165.456 34.3897L165.859 33.9868L167.067 32.778L170.291 29.5547L176.2 23.5109ZM176.2 29.4204L170.156 35.4642V45H176.2V29.4204Z" fill="white"/>
</svg>
