<svg width="33" height="32" viewBox="0 0 33 32" fill="none" xmlns="http://www.w3.org/2000/svg">
<path d="M16.5 28C23.1274 28 28.5 22.6274 28.5 16C28.5 9.37258 23.1274 4 16.5 4C9.87258 4 4.5 9.37258 4.5 16C4.5 22.6274 9.87258 28 16.5 28Z" stroke="#12221A" stroke-width="1.5" stroke-linecap="round" stroke-linejoin="round"/>
<path d="M12.5 12.6726C12.8226 11.7815 13.4594 11.0301 14.2975 10.5515C15.1357 10.0728 16.1211 9.89789 17.0793 10.0576C18.0375 10.2173 18.9066 10.7013 19.5327 11.424C20.1588 12.1467 20.5014 13.0613 20.5 14.006C20.5 16.6726 16.3834 18.006 16.3834 18.006" stroke="#12221A" stroke-width="1.5" stroke-linecap="round" stroke-linejoin="round"/>
<path d="M16.5 22H16.5133" stroke="#12221A" stroke-width="1.5" stroke-linecap="round" stroke-linejoin="round"/>
</svg>
