<svg width="133" height="38" viewBox="0 0 133 38" fill="none" xmlns="http://www.w3.org/2000/svg">
<path d="M20.5065 14.2414C20.5065 14.2414 19.4132 13.1464 16.6322 12.8509C14.9477 12.6685 13.2579 13.0893 11.7187 14.0745C11.1369 14.5472 10.5279 14.9495 9.89832 15.2772C9.18586 15.5832 9.08758 14.7976 9.08758 14.7976C9.08758 14.7976 8.95248 14.5821 9.1957 13.5462C9.43892 12.5103 11.0432 11.909 11.0432 11.909C11.0432 11.909 14.9592 10.4594 16.0033 10.2092C16.5961 10.1157 17.1757 9.89781 17.723 9.56264C18.1627 9.27412 19.9341 8.10963 20.2068 5.65553C20.3836 4.09479 19.8112 2.8747 19.654 2.37067C18.944 0.104284 15.9837 0 15.9837 0H0.64624V31.0065H12.5884C18.4453 31.0065 21.2189 28.747 22.4743 25.9835C23.1391 24.5395 23.4705 22.839 23.4226 21.1171C23.2654 17.0327 20.8799 14.6203 20.5065 14.2414ZM18.126 22.8273C18.126 29.6542 11.9841 29.8524 11.9841 29.8524L6.17636 29.8732V1.10886C6.82739 1.09148 9.79022 1.02544 11.5812 1.10886C11.8227 1.11623 12.0624 1.17002 12.2936 1.26876C13.156 1.63722 13.9839 2.70437 14.232 3.81323C14.5981 5.46088 13.5662 8.05749 11.8023 9.34711C9.53718 11.0017 8.73872 12.7467 8.73872 12.7467C8.59759 13.1675 8.49047 13.6093 8.41936 14.0641C8.26704 15.0131 8.33584 16.1672 8.55203 16.7094C9.37258 18.7603 13.8979 15.319 16.4136 17.8426C17.1728 18.6004 17.8827 20.0256 18.126 22.8273Z" fill="white"/>
<path d="M30.4602 30.4644V8.00977H26.3494V30.4644H30.4602Z" fill="white"/>
<path d="M44.3456 30.7513C50.3215 30.7513 54.851 27.5352 54.851 22.9697C54.851 18.4328 50.3215 15.2168 44.3456 15.2168C38.3697 15.2168 33.8401 18.4328 33.8401 22.9697C33.8401 27.5352 38.3697 30.7513 44.3456 30.7513ZM44.3456 30.3779C40.5011 30.3779 38.0651 27.3629 38.0651 22.9697C38.0651 18.2605 40.6915 15.5901 44.3456 15.5901C48.1519 15.5901 50.626 18.6051 50.626 22.9697C50.626 27.7076 47.9615 30.3779 44.3456 30.3779Z" fill="white"/>
<path d="M67.9493 30.7513C73.9253 30.7513 78.4548 27.5352 78.4548 22.9697C78.4548 18.4328 73.9253 15.2168 67.9493 15.2168C61.9734 15.2168 57.4438 18.4328 57.4438 22.9697C57.4438 27.5352 61.9734 30.7513 67.9493 30.7513ZM67.9493 30.3779C64.1049 30.3779 61.6689 27.3629 61.6689 22.9697C61.6689 18.2605 64.2953 15.5901 67.9493 15.5901C71.7557 15.5901 74.2298 18.6051 74.2298 22.9697C74.2298 27.7076 71.5654 30.3779 67.9493 30.3779Z" fill="white"/>
<path d="M92.0479 30.4641H96.1586V19.3804C96.1586 17.6288 97.4148 16.4802 99.3176 16.4802C101.145 16.4802 102.363 17.6288 102.363 19.3229V30.4641H106.474V19.4665C106.474 16.9397 104.228 15.2168 100.993 15.2168C98.5187 15.2168 96.5773 16.3941 95.8923 18.002C95.2071 16.3079 93.3039 15.2168 90.7537 15.2168C88.508 15.2168 86.757 16.1356 85.9577 17.5713V15.5039H81.8469V30.4641H85.9577V19.2655C85.9577 17.6288 87.2138 16.4802 89.0408 16.4802C90.8299 16.4802 92.0479 17.6288 92.0479 19.2655V30.4641Z" fill="white"/>
<path d="M114.541 30.4644V8.00977H110.431V30.4644H114.541Z" fill="white"/>
<path d="M117.427 15.5039L125.229 30.6364L122.032 37.8724H122.565L132.5 15.5039H131.967L127.133 26.358L121.651 15.5039H117.427Z" fill="white"/>
</svg>
