<svg width="24" height="25" viewBox="0 0 24 25" fill="none" xmlns="http://www.w3.org/2000/svg">
<path d="M19.1538 9.5H10.8462C9.82655 9.5 9 10.3266 9 11.3462V19.6538C9 20.6734 9.82655 21.5 10.8462 21.5H19.1538C20.1734 21.5 21 20.6734 21 19.6538V11.3462C21 10.3266 20.1734 9.5 19.1538 9.5Z" stroke="#060C07" stroke-width="1.5" stroke-linecap="round" stroke-linejoin="round"/>
<path d="M5.76923 15.5H4.84615C4.35652 15.5 3.88695 15.3055 3.54073 14.9593C3.1945 14.6131 3 14.1435 3 13.6538V5.34615C3 4.85652 3.1945 4.38695 3.54073 4.04073C3.88695 3.6945 4.35652 3.5 4.84615 3.5H13.1538C13.6435 3.5 14.1131 3.6945 14.4593 4.04073C14.8055 4.38695 15 4.85652 15 5.34615V6.26923" stroke="#060C07" stroke-width="1.5" stroke-linecap="round" stroke-linejoin="round"/>
</svg>
