<svg width="119" height="61" viewBox="0 0 119 61" fill="none" xmlns="http://www.w3.org/2000/svg">
<g clip-path="url(#clip0_4290_61582)">
<path d="M17.9299 39.9123C17.9299 39.9123 16.9433 38.9352 14.4339 38.6715C12.9139 38.5087 11.3891 38.8842 10.0002 39.7634C9.4752 40.1851 8.92565 40.5442 8.35754 40.8367C7.71461 41.1096 7.62596 40.4086 7.62596 40.4086C7.62596 40.4086 7.50403 40.2163 7.72348 39.2919C7.943 38.3676 9.39053 37.8309 9.39053 37.8309C9.39053 37.8309 12.9242 36.5374 13.8664 36.3141C14.4013 36.2307 14.9243 36.0363 15.4182 35.7371C15.815 35.4797 17.4133 34.4405 17.6595 32.2506C17.819 30.8578 17.3025 29.769 17.1606 29.3193C16.5199 27.2968 13.8487 27.2038 13.8487 27.2038H0.0088501V54.8728H10.7849C16.0699 54.8728 18.5728 52.8566 19.7056 50.3906C20.3054 49.1019 20.6044 47.5845 20.5613 46.0478C20.4194 42.4031 18.2668 40.2504 17.9299 39.9123ZM15.7817 47.574C15.7817 53.6661 10.2396 53.8429 10.2396 53.8429L4.99899 53.8616V28.1933C5.58645 28.1778 8.25996 28.1188 9.87607 28.1933C10.094 28.1999 10.3103 28.2478 10.5189 28.336C11.2971 28.6648 12.0441 29.6171 12.268 30.6066C12.5983 32.0769 11.6673 34.394 10.0756 35.5448C8.03165 37.0213 7.31115 38.5785 7.31115 38.5785C7.1838 38.9539 7.08714 39.3483 7.02297 39.7541C6.88553 40.6009 6.94761 41.6308 7.14269 42.1147C7.88312 43.9448 11.9665 40.8739 14.2366 43.1259C14.9216 43.8021 15.5623 45.0739 15.7817 47.574Z" fill="#F8F8F8"/>
<path d="M26.9116 54.3891V34.3513H23.2021V54.3891H26.9116Z" fill="#F8F8F8"/>
<path d="M39.4411 54.6453C44.8336 54.6453 48.9208 51.7754 48.9208 47.7013C48.9208 43.6527 44.8336 40.7829 39.4411 40.7829C34.0487 40.7829 29.9615 43.6527 29.9615 47.7013C29.9615 51.7754 34.0487 54.6453 39.4411 54.6453ZM39.4411 54.3122C35.9721 54.3122 33.7739 51.6217 33.7739 47.7013C33.7739 43.499 36.1439 41.116 39.4411 41.116C42.8758 41.116 45.1084 43.8065 45.1084 47.7013C45.1084 51.9292 42.7041 54.3122 39.4411 54.3122Z" fill="#F8F8F8"/>
<path d="M60.7401 54.6453C66.1325 54.6453 70.2198 51.7754 70.2198 47.7013C70.2198 43.6527 66.1325 40.7829 60.7401 40.7829C55.3477 40.7829 51.2604 43.6527 51.2604 47.7013C51.2604 51.7754 55.3477 54.6453 60.7401 54.6453ZM60.7401 54.3122C57.2711 54.3122 55.0729 51.6217 55.0729 47.7013C55.0729 43.499 57.4428 41.116 60.7401 41.116C64.1747 41.116 66.4073 43.8065 66.4073 47.7013C66.4073 51.9292 64.003 54.3122 60.7401 54.3122Z" fill="#F8F8F8"/>
<path d="M82.4856 54.3891H86.1954V44.4983C86.1954 42.9353 87.3283 41.9104 89.0457 41.9104C90.6947 41.9104 91.7938 42.9353 91.7938 44.4471V54.3891H95.5028V44.5752C95.5028 42.3203 93.4766 40.7829 90.5572 40.7829C88.3245 40.7829 86.5725 41.8335 85.9542 43.2684C85.3367 41.7566 83.6193 40.7829 81.3174 40.7829C79.2913 40.7829 77.7114 41.6028 76.9902 42.884V41.0391H73.2806V54.3891H76.9902V44.3958C76.9902 42.9353 78.1238 41.9104 79.7721 41.9104C81.3865 41.9104 82.4856 42.9353 82.4856 44.3958V54.3891Z" fill="#F8F8F8"/>
<path d="M102.782 54.3891V34.3513H99.0735V54.3891H102.782Z" fill="#F8F8F8"/>
<path d="M105.386 41.0391L112.427 54.5428L109.542 61H110.023L118.987 41.0391H118.506L114.145 50.7248L109.199 41.0391H105.386Z" fill="#F8F8F8"/>
<path d="M63.2148 14.2876H63.2148C60.5262 14.2876 58.3467 16.4511 58.3467 19.1198V29.6245C58.3467 32.2932 60.5262 34.4566 63.2148 34.4566C65.9034 34.4566 68.0829 32.2932 68.0829 29.6245V19.1198C68.0829 16.4511 65.9034 14.2876 63.2148 14.2876Z" fill="url(#paint0_linear_4290_61582)"/>
<path d="M76.7607 0H76.7606C74.0721 0 71.8926 2.16343 71.8926 4.83215V29.6232C71.8926 32.292 74.0721 34.4554 76.7607 34.4554C79.4492 34.4554 81.6287 32.292 81.6287 29.6232V4.83215C81.6287 2.16343 79.4492 0 76.7607 0Z" fill="url(#paint1_linear_4290_61582)"/>
<path d="M49.6688 34.4567C52.3574 34.4567 54.5369 32.2933 54.5369 29.6245C54.5369 26.9558 52.3574 24.7924 49.6688 24.7924C46.9803 24.7924 44.8008 26.9558 44.8008 29.6245C44.8008 32.2933 46.9803 34.4567 49.6688 34.4567Z" fill="#A5F33C"/>
<path d="M63.2149 23.952C65.9034 23.952 68.0829 21.7886 68.0829 19.1198C68.0829 16.4511 65.9034 14.2877 63.2149 14.2877C60.5263 14.2877 58.3468 16.4511 58.3468 19.1198C58.3468 21.7886 60.5263 23.952 63.2149 23.952Z" fill="#A5F33C"/>
<path d="M76.761 9.66431C79.4496 9.66431 81.6291 7.50088 81.6291 4.83215C81.6291 2.16343 79.4496 0 76.761 0C74.0725 0 71.8929 2.16343 71.8929 4.83215C71.8929 7.50088 74.0725 9.66431 76.761 9.66431Z" fill="#A5F33C"/>
</g>
<defs>
<linearGradient id="paint0_linear_4290_61582" x1="63.4265" y1="21.2208" x2="63.218" y2="34.4567" gradientUnits="userSpaceOnUse">
<stop stop-color="#A5F33C" stop-opacity="0.29"/>
<stop offset="1" stop-color="#A6F141"/>
</linearGradient>
<linearGradient id="paint1_linear_4290_61582" x1="76.9721" y1="7.35328" x2="76.7641" y2="34.4554" gradientUnits="userSpaceOnUse">
<stop stop-color="#A6F141" stop-opacity="0.29"/>
<stop offset="1" stop-color="#A5F33C"/>
</linearGradient>
<clipPath id="clip0_4290_61582">
<rect width="119" height="61" fill="white"/>
</clipPath>
</defs>
</svg>
