<svg width="24" height="24" viewBox="0 0 24 24" fill="none" xmlns="http://www.w3.org/2000/svg">
<path d="M18.7575 5.74404C17.5144 5.16908 16.1819 4.74411 14.7885 4.50246C14.7761 4.50002 14.7633 4.50159 14.7518 4.50696C14.7403 4.51234 14.7307 4.52125 14.7243 4.53246C14.5537 4.83994 14.3636 5.24074 14.2304 5.55739C12.7525 5.33093 11.2501 5.33093 9.7723 5.55739C9.62389 5.20646 9.45653 4.86429 9.271 4.53246C9.26471 4.52111 9.2552 4.512 9.24373 4.50634C9.23226 4.50068 9.21938 4.49875 9.20681 4.50079C7.81423 4.74244 6.48177 5.16741 5.23787 5.74321C5.22717 5.74781 5.21809 5.75566 5.21187 5.76571C2.68344 9.57796 1.9904 13.296 2.33083 16.9675C2.33177 16.9765 2.33449 16.9852 2.33882 16.993C2.34315 17.0009 2.349 17.0078 2.35601 17.0133C3.83179 18.1153 5.47782 18.9547 7.22518 19.4965C7.23737 19.5003 7.25039 19.5003 7.26257 19.4964C7.27474 19.4926 7.2855 19.485 7.29343 19.4748C7.66944 18.9591 8.00264 18.4119 8.28953 17.8391C8.29351 17.8313 8.2958 17.8226 8.29626 17.8138C8.29671 17.805 8.29531 17.7962 8.29215 17.788C8.28899 17.7797 8.28415 17.7723 8.27795 17.7662C8.27175 17.7601 8.26434 17.7554 8.25622 17.7524C7.73136 17.5497 7.22282 17.3051 6.73526 17.0208C6.7265 17.0157 6.71912 17.0084 6.71378 16.9996C6.70844 16.9908 6.7053 16.9808 6.70466 16.9705C6.70401 16.9602 6.70588 16.9499 6.71009 16.9405C6.71429 16.9311 6.72071 16.9229 6.72876 16.9166C6.83113 16.8391 6.93351 16.7583 7.031 16.6775C7.03978 16.6702 7.05035 16.6656 7.06154 16.6641C7.07273 16.6627 7.0841 16.6644 7.09438 16.6692C10.285 18.1391 13.7404 18.1391 16.8937 16.6692C16.904 16.6641 16.9154 16.6621 16.9268 16.6635C16.9381 16.6648 16.9489 16.6694 16.9578 16.6767C17.0553 16.7583 17.1569 16.8391 17.2601 16.9166C17.2682 16.9227 17.2747 16.9308 17.2791 16.9401C17.2834 16.9495 17.2854 16.9597 17.285 16.9701C17.2845 16.9804 17.2815 16.9904 17.2763 16.9993C17.2711 17.0081 17.2639 17.0155 17.2552 17.0208C16.7693 17.3075 16.264 17.5499 15.7334 17.7516C15.7253 17.7546 15.7179 17.7594 15.7117 17.7656C15.7055 17.7718 15.7006 17.7793 15.6975 17.7876C15.6943 17.7959 15.6929 17.8048 15.6934 17.8136C15.6938 17.8225 15.6961 17.8312 15.7001 17.8391C15.9926 18.4115 16.3274 18.9565 16.6954 19.474C16.7031 19.4846 16.7137 19.4925 16.7259 19.4967C16.7382 19.5009 16.7513 19.5011 16.7637 19.4973C18.514 18.957 20.1627 18.1172 21.6401 17.0133C21.6474 17.0081 21.6534 17.0014 21.6579 16.9937C21.6624 16.9859 21.6652 16.9773 21.6661 16.9683C22.0724 12.7236 20.9853 9.03549 18.7827 5.76738C18.7773 5.75675 18.7683 5.74848 18.7575 5.74404ZM8.76645 14.7318C7.80611 14.7318 7.01394 13.841 7.01394 12.7486C7.01394 11.6553 7.79067 10.7654 8.76645 10.7654C9.74955 10.7654 10.5344 11.6628 10.519 12.7486C10.519 13.8418 9.74224 14.7318 8.76645 14.7318ZM15.246 14.7318C14.2848 14.7318 13.4934 13.841 13.4934 12.7486C13.4934 11.6553 14.2694 10.7654 15.246 10.7654C16.229 10.7654 17.0139 11.6628 16.9985 12.7486C16.9985 13.8418 16.2299 14.7318 15.246 14.7318Z" fill="#12221A"/>
</svg>
