<svg width="33" height="32" viewBox="0 0 33 32" fill="none" xmlns="http://www.w3.org/2000/svg">
<path d="M4.5 24V16C4.5 12.8174 5.76428 9.76516 8.01472 7.51472C10.2652 5.26428 13.3174 4 16.5 4C19.6826 4 22.7348 5.26428 24.9853 7.51472C27.2357 9.76516 28.5 12.8174 28.5 16V24" stroke="#12221A" stroke-width="1.5" stroke-linecap="round" stroke-linejoin="round"/>
<path d="M28.5 25.3337C28.5 26.0409 28.219 26.7192 27.719 27.2193C27.2189 27.7194 26.5406 28.0003 25.8333 28.0003H24.5C23.7928 28.0003 23.1145 27.7194 22.6144 27.2193C22.1143 26.7192 21.8333 26.0409 21.8333 25.3337V21.3337C21.8333 20.6264 22.1143 19.9481 22.6144 19.448C23.1145 18.9479 23.7928 18.667 24.5 18.667H28.5V25.3337ZM4.5 25.3337C4.5 26.0409 4.78095 26.7192 5.28105 27.2193C5.78115 27.7194 6.45942 28.0003 7.16667 28.0003H8.5C9.20724 28.0003 9.88552 27.7194 10.3856 27.2193C10.8857 26.7192 11.1667 26.0409 11.1667 25.3337V21.3337C11.1667 20.6264 10.8857 19.9481 10.3856 19.448C9.88552 18.9479 9.20724 18.667 8.5 18.667H4.5V25.3337Z" stroke="#12221A" stroke-width="1.5" stroke-linecap="round" stroke-linejoin="round"/>
</svg>
