<svg width="24" height="25" viewBox="0 0 24 25" fill="none" xmlns="http://www.w3.org/2000/svg">
<path d="M20.249 18.754V20.254C20.249 21.0824 19.5775 21.754 18.749 21.754H14.249" stroke="white" stroke-width="1.5" stroke-linecap="round" stroke-linejoin="round"/>
<path d="M14.249 3.75397H18.749C19.5775 3.75397 20.249 4.42554 20.249 5.25397V6.75397" stroke="white" stroke-width="1.5" stroke-linecap="round" stroke-linejoin="round"/>
<path fill-rule="evenodd" clip-rule="evenodd" d="M10.393 23.246L1.39302 21.96C1.02368 21.9073 0.749258 21.5911 0.749024 21.218V3.72498C0.748733 3.37104 0.995924 3.06507 1.34202 2.99098L10.342 0.76998C10.5636 0.72255 10.7947 0.777822 10.9708 0.920355C11.147 1.06289 11.2492 1.2774 11.249 1.50398V22.504C11.2489 22.7213 11.1545 22.9279 10.9903 23.0702C10.8261 23.2126 10.6082 23.2767 10.393 23.246Z" stroke="white" stroke-width="1.5" stroke-linecap="round" stroke-linejoin="round"/>
<path d="M20.249 9.75299L23.249 12.753H14.999" stroke="white" stroke-width="1.5" stroke-linecap="round" stroke-linejoin="round"/>
<path d="M20.25 15.753L23.25 12.753" stroke="white" stroke-width="1.5" stroke-linecap="round" stroke-linejoin="round"/>
<path d="M7.87401 11.629C7.72198 11.629 7.58499 11.7208 7.52719 11.8614C7.46939 12.0021 7.50222 12.1637 7.6103 12.2706C7.71838 12.3775 7.88032 12.4086 8.02031 12.3493C8.1603 12.29 8.25064 12.152 8.24901 12C8.24928 11.9005 8.20986 11.8049 8.13947 11.7345C8.06909 11.6642 7.97355 11.6247 7.87401 11.625V11.625" stroke="white" stroke-width="1.5" stroke-linecap="round" stroke-linejoin="round"/>
</svg>
