<svg width="33" height="32" viewBox="0 0 33 32" fill="none" xmlns="http://www.w3.org/2000/svg">
<path d="M8.62526 14.3926C8.50953 14.5766 8.42273 14.7452 8.307 14.9139C8.1334 15.1592 7.91641 15.2666 7.62708 15.2359C7.07736 15.1746 6.55657 15.0212 6.03578 14.8526C5.24013 14.5919 4.45894 14.2852 3.70669 13.9019C3.53309 13.8099 3.37396 13.7179 3.21483 13.5799C3.04124 13.4113 2.9689 13.2119 3.0123 12.9666C3.21483 11.9086 3.48969 10.8813 3.77902 9.85394C4.09728 8.76528 4.35768 7.66129 4.66147 6.57263C5.05206 5.20797 5.86218 4.30331 7.07736 3.76665C8.20573 3.27598 9.33411 2.75465 10.5204 2.44799C11.4317 2.21799 12.3576 2.09533 13.2834 2.00333C13.5438 1.97266 13.7174 2.15666 13.7174 2.44799C13.7174 2.76999 13.7319 3.09199 13.8187 3.39865C13.9923 4.08865 14.4407 4.56398 15.0049 4.87064C16.3792 5.62197 17.7535 5.5913 19.0989 4.80931C19.909 4.33398 20.3141 3.58265 20.2852 2.60132C20.2852 2.53999 20.2852 2.47866 20.2852 2.43266C20.2996 2.15666 20.4732 2.00333 20.7336 2.01866C22.5419 2.17199 24.2779 2.58599 25.9415 3.33732C26.3032 3.50598 26.6648 3.65932 27.0265 3.82798C28.1983 4.34931 28.9795 5.25397 29.3266 6.54196C29.8764 8.62728 30.5129 10.6973 30.9613 12.8133C31.0626 13.3039 30.9758 13.5186 30.5708 13.7639C29.8908 14.1779 29.1386 14.4539 28.4008 14.7146C27.8221 14.9292 27.229 15.1132 26.6214 15.2206C26.0717 15.3279 25.8113 15.2052 25.5365 14.6839C25.4931 14.5919 25.4497 14.4999 25.3773 14.4232C25.3484 15.0366 25.3195 15.6499 25.2905 16.2786C25.1603 18.7472 25.0301 21.2159 24.8999 23.6692C24.8131 25.2485 24.7408 26.8278 24.654 28.3918C24.654 28.4685 24.6395 28.5298 24.6395 28.6065C24.6106 28.8825 24.5383 28.9898 24.2923 29.0665C23.6414 29.2505 22.9904 29.4038 22.3394 29.5265C20.1694 29.9405 17.9705 30.0631 15.7716 29.9711C13.7464 29.8945 11.75 29.6338 9.78257 29.0665C9.46431 28.9745 9.39198 28.8978 9.37751 28.5452C9.31964 27.4258 9.26178 26.3065 9.20391 25.2025C9.08818 22.9639 8.97245 20.7252 8.84225 18.4866C8.76992 17.1832 8.69759 15.8646 8.62526 14.5459C8.62526 14.4999 8.62526 14.4539 8.62526 14.3926Z" stroke="white" stroke-width="1.5" stroke-miterlimit="10" stroke-linecap="round" stroke-linejoin="round"/>
</svg>
