<svg width="192" height="55" viewBox="0 0 192 55" fill="none" xmlns="http://www.w3.org/2000/svg">
<path d="M48.7803 16.1098V39.3931H47.5723L44.1676 35.8786L38.3468 30.0578L34.9422 26.6532V39.3931H30V16H31.2081L43.8381 28.6301V16.1098H48.7803Z" fill="white"/>
<path d="M55.2271 16V16.8786V20.8324H75.9843V16H55.2271ZM60.1692 29.289H73.8976V24.3468H60.1692H55.2271V29.289H60.1692ZM55.2271 34.2312V35.1098V39.0636H75.9843V34.1214H60.1692H55.2271V34.2312Z" fill="white"/>
<path d="M106.263 39.1734H100.113L99.7833 38.8439L96.7081 34.5607L94.2919 31.3757V31.2659L92.2052 34.2312L88.9104 38.8439L88.581 39.1734H82.4307L83.5289 37.7457L84.737 35.9884L85.8353 34.5607L91.2168 27.2023L84.0781 17.4277L82.9798 16H89.1301L89.4596 16.3295L94.2919 23.0289L99.2341 16.3295L99.5636 16H105.604L104.616 17.4277L97.3671 27.2023L105.165 37.7457L106.263 39.1734Z" fill="white"/>
<path d="M128.634 16V28.7399C128.634 31.7052 126.218 34.2312 123.363 34.341C123.253 34.341 123.253 34.341 123.143 34.341C123.033 34.341 123.033 34.341 122.923 34.341C119.958 34.2312 117.652 31.7052 117.652 28.7399V16H112.709V30.4971C112.709 32.3642 113.368 34.1214 114.577 35.4393C115.016 35.9884 115.565 36.4277 116.114 36.867C118.091 38.4046 120.507 39.1734 123.143 39.1734C125.669 39.1734 128.085 38.4046 130.172 36.867C130.721 36.4277 131.27 35.9884 131.709 35.5491C133.027 34.2312 133.686 32.474 133.686 30.6069V16H128.634Z" fill="white"/>
<path d="M140.133 39.3931H145.075V31.5954L140.133 26.6532V39.3931ZM161 21.8208V16H159.902L150.567 25.3353L145.954 20.7225L141.341 16H140.133V21.711L145.075 26.6532L147.382 28.9595L150.676 32.2543L151.335 31.5954L152.214 30.7168L152.543 30.3873L153.532 29.3988L156.168 26.763L161 21.8208ZM161 26.6532L156.058 31.5954V39.3931H161V26.6532Z" fill="white"/>
</svg>
