<svg width="219" height="22" viewBox="0 0 219 22" fill="none" xmlns="http://www.w3.org/2000/svg">
<path d="M67.06 0.0997661V21.2502H65.9626L62.8698 18.0577L57.5822 12.7701L54.4895 9.67731V21.2502H50V0H51.0974L62.5705 11.4731V0.0997661H67.06Z" fill="white"/>
<path d="M72.9163 0V0.798129V4.38971H91.7721V0H72.9163ZM77.4057 12.0717H89.8765V7.58223H77.4057H72.9163V12.0717H77.4057ZM72.9163 16.5612V17.3593V20.9509H91.7721V16.4614H77.4057H72.9163V16.5612Z" fill="white"/>
<path d="M119.277 21.0506H113.69L113.391 20.7514L110.598 16.8605L108.403 13.9673V13.8675L106.507 16.5612L103.514 20.7514L103.215 21.0506H97.6279L98.6256 19.7537L99.723 18.1574L100.721 16.8605L105.609 10.1761L99.1244 1.29696L98.1268 0H103.714L104.013 0.299298L108.403 6.38503L112.892 0.299298L113.191 0H118.679L117.781 1.29696L111.196 10.1761L118.28 19.7537L119.277 21.0506Z" fill="white"/>
<path d="M139.599 0V11.5729C139.599 14.2666 137.404 16.5612 134.81 16.6609C134.711 16.6609 134.711 16.6609 134.611 16.6609C134.511 16.6609 134.511 16.6609 134.411 16.6609C131.718 16.5612 129.623 14.2666 129.623 11.5729V0H125.133V13.1691C125.133 14.8652 125.732 16.4614 126.829 17.6586C127.228 18.1574 127.727 18.5565 128.226 18.9556C130.022 20.3523 132.216 21.0506 134.611 21.0506C136.905 21.0506 139.1 20.3523 140.996 18.9556C141.495 18.5565 141.994 18.1574 142.393 17.7584C143.59 16.5612 144.188 14.9649 144.188 13.2689V0H139.599Z" fill="white"/>
<path d="M150.044 21.2502H154.534V14.1668L150.044 9.67731V21.2502ZM169 5.2876V0H168.002L159.522 8.48012L155.332 4.28994L151.142 0H150.044V5.18784L154.534 9.67731L156.629 11.7724L159.622 14.7654L160.221 14.1668L161.019 13.3687L161.318 13.0694L162.216 12.1715L164.61 9.77708L169 5.2876ZM169 9.67731L164.511 14.1668V21.2502H169V9.67731Z" fill="white"/>
</svg>
