<svg width="179" height="32" viewBox="0 0 179 32" fill="none" xmlns="http://www.w3.org/2000/svg">
<path d="M25.5746 0.293602V32.0001H23.9294L19.2931 27.2142L11.3665 19.2876L6.73015 14.6512V32.0001H0V0.144043H1.64515L18.8444 17.3433V0.293602H25.5746Z" fill="#213E28"/>
<path d="M34.3535 0.144043V1.34051V6.72463H62.6201V0.144043H34.3535ZM41.0837 18.2407H59.7785V11.5105H41.0837H34.3535V18.2407H41.0837ZM34.3535 24.9708V26.1673V31.5514H62.6201V24.8212H41.0837H34.3535V24.9708Z" fill="#213E28"/>
<path d="M103.853 31.7009H95.4776L95.029 31.2523L90.8413 25.4195L87.551 21.0823V20.9327L84.7094 24.9708L80.2226 31.2523L79.774 31.7009H71.3987L72.8943 29.7567L74.5394 27.3637L76.035 25.4195L83.3634 15.399L73.6421 2.08831L72.1465 0.144043H80.5218L80.9704 0.592719L87.551 9.7158L94.2812 0.592719L94.7298 0.144043H102.956L101.61 2.08831L91.7387 15.399L102.357 29.7567L103.853 31.7009Z" fill="#213E28"/>
<path d="M134.318 0.144043V17.4929C134.318 21.5309 131.027 24.9708 127.139 25.1204C126.989 25.1204 126.989 25.1204 126.84 25.1204C126.69 25.1204 126.69 25.1204 126.541 25.1204C122.502 24.9708 119.362 21.5309 119.362 17.4929V0.144043H112.632V19.8858C112.632 22.4283 113.529 24.8212 115.174 26.6159C115.772 27.3637 116.52 27.962 117.268 28.5602C119.96 30.654 123.25 31.7009 126.84 31.7009C130.28 31.7009 133.57 30.654 136.411 28.5602C137.159 27.962 137.907 27.3637 138.505 26.7655C140.3 24.9708 141.197 22.5779 141.197 20.0354V0.144043H134.318Z" fill="#213E28"/>
<path d="M149.976 32.0001H156.706V21.3814L149.976 14.6512V32.0001ZM178.392 8.07066V0.144043H176.897L164.184 12.8565L157.903 6.57507L151.621 0.144043H149.976V7.9211L156.706 14.6512L159.847 17.792L164.334 22.2787L165.231 21.3814L166.428 20.1849L166.876 19.7362L168.222 18.3902L171.812 14.8008L178.392 8.07066ZM178.392 14.6512L171.662 21.3814V32.0001H178.392V14.6512Z" fill="#213E28"/>
</svg>
