<svg width="32" height="32" viewBox="0 0 32 32" fill="none" xmlns="http://www.w3.org/2000/svg">
<path d="M24.13 17.6913V11.7838C24.13 7.24324 20.2381 4 15.6976 4C11.157 4 7.26513 7.24324 7.26513 11.7838V17.6913C7.26513 18.9147 6.90299 20.1108 6.22435 21.1287L4.93946 23.0561C4.82451 23.2285 4.94811 23.4595 5.15534 23.4595H26.2398C26.447 23.4595 26.5706 23.2285 26.4557 23.0561L25.1708 21.1287C24.4921 20.1108 24.13 18.9147 24.13 17.6913Z" stroke="#12221A" stroke-width="2" stroke-linejoin="round"/>
<path d="M15.6975 28C17.4887 28 18.9408 26.5479 18.9408 24.7568C18.9408 24.2955 18.8445 23.8567 18.6709 23.4595H12.7242C12.5506 23.8567 12.4543 24.2955 12.4543 24.7568C12.4543 26.5479 13.9063 28 15.6975 28Z" stroke="#12221A" stroke-width="2"/>
</svg>
