<svg width="241" height="351" viewBox="0 0 241 351" fill="none" xmlns="http://www.w3.org/2000/svg">
<g clip-path="url(#clip0_4290_61600)">
<path d="M224.721 160.95C224.721 160.95 212.356 148.588 180.904 145.252C161.853 143.192 142.743 147.943 125.334 159.066C118.754 164.402 111.867 168.944 104.746 172.644C96.6889 176.099 95.5773 167.229 95.5773 167.229C95.5773 167.229 94.0494 164.795 96.8001 153.101C99.5508 141.407 117.694 134.617 117.694 134.617C117.694 134.617 161.982 118.252 173.791 115.427C180.495 114.372 187.051 111.911 193.24 108.127C198.214 104.87 218.246 91.723 221.33 64.0165C223.331 46.3957 216.857 32.6211 215.079 26.9306C207.049 1.34338 173.569 0.166016 173.569 0.166016H0.109375V350.225H135.17C201.409 350.225 232.778 324.717 246.976 293.518C254.494 277.215 258.241 258.017 257.7 238.576C255.922 192.463 228.943 165.228 224.721 160.95ZM197.798 257.883C197.798 334.959 128.336 337.197 128.336 337.197L62.6526 337.432V12.6849C70.0155 12.4887 103.524 11.7431 123.778 12.6849C126.511 12.7683 129.221 13.3756 131.836 14.4902C141.589 18.65 150.952 30.6981 153.759 43.217C157.899 61.8188 146.229 91.1343 126.279 105.694C100.662 124.375 91.6318 144.075 91.6318 144.075C90.0358 148.825 88.8243 153.814 88.0201 158.949C86.2973 169.663 87.0755 182.691 89.5205 188.814C98.8006 211.968 149.98 173.116 178.431 201.607C187.017 210.162 195.046 226.253 197.798 257.883Z" fill="url(#paint0_linear_4290_61600)"/>
</g>
<defs>
<linearGradient id="paint0_linear_4290_61600" x1="128.931" y1="0.166016" x2="128.931" y2="350.225" gradientUnits="userSpaceOnUse">
<stop stop-opacity="0.31"/>
<stop offset="1" stop-opacity="0"/>
</linearGradient>
<clipPath id="clip0_4290_61600">
<rect width="258" height="351" fill="white"/>
</clipPath>
</defs>
</svg>
