<svg width="33" height="32" viewBox="0 0 33 32" fill="none" xmlns="http://www.w3.org/2000/svg">
<path d="M29.5038 10.4666C29.5038 10.365 29.5038 10.2634 29.5038 10.1618C29.4577 9.98699 29.3608 9.84744 29.2308 9.71941C28.5811 9.07856 27.9396 8.43026 27.2926 7.78603C26.895 7.38973 26.6972 7.37754 26.2406 7.71287C25.8226 8.02042 25.2163 7.98655 24.8668 7.637C24.5172 7.28744 24.4833 6.68114 24.7909 6.26317C25.1262 5.80726 25.1147 5.60945 24.7177 5.21113C24.0742 4.56486 23.4252 3.92266 22.7843 3.273C22.6563 3.14294 22.5168 3.04674 22.342 3C22.2404 3 22.1388 3 22.0371 3C21.8935 3.05013 21.7648 3.12261 21.6429 3.21813C21.082 3.65982 20.3503 3.65982 19.7901 3.21813C19.6682 3.12261 19.5401 3.05013 19.3959 3C19.2942 3 19.1926 3 19.091 3C18.9454 3.08603 18.8234 3.19916 18.7049 3.31839C13.738 8.288 8.76971 13.2569 3.8001 18.2238C3.68629 18.337 3.58603 18.4582 3.5 18.5924C3.5 18.694 3.5 18.7956 3.5 18.8972C3.55013 19.0408 3.62261 19.1695 3.71813 19.2915C4.15981 19.8524 4.15981 20.584 3.71813 21.1442C3.62261 21.2662 3.55013 21.3942 3.5 21.5385C3.5 21.6401 3.5 21.7417 3.5 21.8433C3.54607 22.0181 3.64294 22.1577 3.773 22.2857C4.42266 22.9265 5.06418 23.5749 5.71113 24.2191C6.10945 24.6154 6.30658 24.6276 6.76317 24.2922C7.18114 23.9847 7.78744 24.0186 8.137 24.3681C8.48655 24.7177 8.52042 25.324 8.21287 25.7419C7.87754 26.1979 7.88906 26.3957 8.28603 26.794C8.93026 27.4403 9.57856 28.0825 10.2194 28.7321C10.3474 28.8622 10.487 28.9584 10.6618 29.0051C10.7634 29.0051 10.865 29.0051 10.9666 29.0051C11.1102 28.955 11.2389 28.8825 11.3609 28.787C11.9218 28.3453 12.6534 28.3453 13.2136 28.787C13.3356 28.8825 13.4636 28.955 13.6079 29.0051C13.6926 29.0051 13.7773 29.0051 13.8619 29.0051C14.015 28.9509 14.1349 28.852 14.2488 28.7382C19.2272 23.7578 24.2063 18.7787 29.1867 13.8002C29.3059 13.681 29.417 13.5577 29.5044 13.4127C29.5044 13.3111 29.5044 13.2095 29.5044 13.1079C29.4543 12.9643 29.3818 12.8356 29.2863 12.7136C28.8446 12.1527 28.8446 11.4211 29.2863 10.8609C29.3811 10.7389 29.4529 10.6102 29.5038 10.4666ZM28.2248 13.0788C28.2993 13.2143 28.2708 13.2793 28.1733 13.3748C27.7201 13.8192 27.2737 14.2704 26.8245 14.7195C22.5283 19.0158 18.2314 23.312 13.9378 27.6116C13.7949 27.7553 13.7014 27.7932 13.4988 27.6862C12.6785 27.2519 11.8432 27.2675 11.0276 27.7078C10.8813 27.7871 10.8047 27.7844 10.6895 27.6645C10.2546 27.214 9.81227 26.771 9.36111 26.3367C9.23917 26.2195 9.24391 26.1355 9.31166 25.9933C9.69576 25.1878 9.52505 24.2279 8.89978 23.6047C8.26367 22.9706 7.30715 22.8066 6.48881 23.2023C6.36484 23.2626 6.29168 23.2707 6.18668 23.1623C5.7389 22.7003 5.28367 22.2464 4.82302 21.7973C4.71869 21.6957 4.71192 21.6286 4.78237 21.4999C5.24438 20.6585 5.25115 19.8036 4.79524 18.9602C4.70514 18.7936 4.73834 18.7197 4.85486 18.6039C8.41813 15.046 11.978 11.4848 15.5393 7.9249C16.7241 6.74008 17.9109 5.55729 19.0917 4.36908C19.2129 4.24715 19.2902 4.20718 19.4683 4.30337C20.3029 4.75318 21.1524 4.74641 21.985 4.29186C22.1401 4.20718 22.2133 4.23969 22.3217 4.35147C22.7464 4.78841 23.1766 5.21993 23.6142 5.644C23.7395 5.76594 23.768 5.85062 23.686 6.02539C23.0296 7.42361 24.0552 9.01895 25.597 9.01692C25.9229 9.01556 26.2365 8.95324 26.5251 8.79946C26.6362 8.74053 26.7087 8.73646 26.8062 8.83604C27.2608 9.30279 27.7228 9.76277 28.1882 10.218C28.2844 10.3122 28.2891 10.3779 28.2248 10.4957C27.7519 11.3534 27.7506 12.2205 28.2248 13.0788Z" fill="#12221A"/>
<path d="M25.0872 11.3237C23.7858 10.0285 22.4906 8.72712 21.1906 7.43052C20.2612 6.50313 19.0702 6.50516 18.1401 7.43527C14.7354 10.8393 11.3313 14.2434 7.92722 17.6482C6.99982 18.5756 7.00457 19.7678 7.93467 20.698C9.21501 21.9783 10.4954 23.2586 11.7757 24.539C12.7512 25.5145 13.9191 25.5138 14.898 24.5356C16.454 22.9802 18.0087 21.4242 19.5648 19.8688C21.4013 18.0323 23.2364 16.1937 25.0763 14.3599C25.5031 13.9345 25.7605 13.4434 25.7551 12.831C25.7585 12.2281 25.5078 11.7417 25.0872 11.3237ZM15.0443 22.9572C14.7029 23.2857 14.3736 23.6265 14.0356 23.9577C13.8405 24.1488 13.6027 24.2484 13.3392 24.2395C13.0486 24.2423 12.8155 24.1373 12.6218 23.9435C11.2697 22.592 9.91547 21.2426 8.56739 19.8864C8.14942 19.4657 8.14942 18.8804 8.55791 18.4563C8.88036 18.121 9.21704 17.7999 9.54221 17.4666C9.62892 17.3779 9.67905 17.3589 9.77931 17.4598C11.5284 19.2157 13.2816 20.9682 15.0362 22.7187C15.1242 22.8075 15.1459 22.8596 15.0443 22.9572ZM22.4675 15.5346C20.316 17.6787 18.1693 19.8275 16.0211 21.9749C15.9744 22.0216 15.9229 22.0636 15.8694 22.1117C15.8247 22.0697 15.7874 22.0352 15.7515 22C14.0044 20.2536 12.2594 18.5051 10.5075 16.7628C10.3876 16.6435 10.4154 16.59 10.5177 16.4877C12.674 14.3369 14.8275 12.1834 16.9783 10.0264C17.0888 9.91533 17.1484 9.89365 17.2717 10.0183C19.0018 11.7579 20.7367 13.4928 22.4763 15.2223C22.6105 15.3558 22.5854 15.4167 22.4675 15.5346ZM24.4544 13.5369C24.1286 13.881 23.7824 14.2048 23.4546 14.5469C23.3536 14.6526 23.3015 14.6187 23.2175 14.534C21.4731 12.7856 19.7273 11.0378 17.9755 9.29616C17.8556 9.17693 17.882 9.12206 17.9857 9.02248C18.3081 8.71154 18.6211 8.39044 18.9388 8.0734C19.1387 7.87356 19.3751 7.7584 19.6637 7.7645C19.9407 7.7584 20.1772 7.85663 20.3716 8.05037C21.7305 9.40726 23.0908 10.7628 24.4436 12.1251C24.8514 12.5363 24.8521 13.1169 24.4544 13.5369Z" fill="#12221A"/>
<path d="M18.0871 13.8977C18.0221 14.3665 17.9638 14.8359 17.8886 15.3027C17.8608 15.4754 17.8845 15.575 18.062 15.6563C18.4759 15.8453 18.8763 16.0641 19.2821 16.27C19.4155 16.3378 19.5388 16.413 19.5104 16.5918C19.4819 16.772 19.3403 16.7991 19.192 16.8242C18.7259 16.9034 18.2612 16.9929 17.7945 17.0687C17.6773 17.0877 17.6237 17.1243 17.6054 17.2516C17.5357 17.7367 17.4476 18.2183 17.3738 18.7027C17.3514 18.849 17.3067 18.9696 17.1462 18.9953C16.9822 19.0218 16.9063 18.9107 16.8393 18.7833C16.615 18.3579 16.3807 17.9379 16.1639 17.5091C16.1016 17.3858 16.0304 17.3607 15.9058 17.3817C15.4478 17.4583 14.9872 17.5233 14.5292 17.6012C14.3694 17.6283 14.2156 17.65 14.1309 17.4806C14.0462 17.3113 14.1607 17.1981 14.2718 17.0863C14.5943 16.7625 14.9079 16.4306 15.2358 16.1129C15.3415 16.0106 15.3483 15.9334 15.2812 15.8087C15.0583 15.3921 14.8476 14.9694 14.6322 14.5494C14.5638 14.4166 14.5082 14.2818 14.6349 14.1538C14.7636 14.0237 14.8951 14.0894 15.0285 14.1551C15.4295 14.3529 15.8414 14.5304 16.2303 14.7485C16.4233 14.8569 16.5229 14.8075 16.6537 14.6673C16.9653 14.334 17.2911 14.0129 17.6115 13.687C17.7057 13.5915 17.8073 13.5251 17.9482 13.5962C18.0776 13.6613 18.0959 13.771 18.0871 13.8977Z" fill="#12221A"/>
</svg>
