<svg width="24" height="24" viewBox="0 0 24 24" fill="none" xmlns="http://www.w3.org/2000/svg">
<path d="M21.0566 7.18114C21.0659 7.39235 21.0659 7.59395 21.0659 7.80515C21.0752 14.2084 16.3707 21.6004 7.76744 21.6004C5.22999 21.6004 2.73885 20.842 0.599609 19.4212C0.97004 19.4692 1.34047 19.4884 1.7109 19.4884C3.81309 19.4884 5.85972 18.7588 7.5174 17.4052C5.51707 17.3668 3.75753 16.0132 3.14632 14.0356C3.85014 14.1796 4.57248 14.1508 5.25777 13.9492C3.08149 13.5076 1.51642 11.5204 1.50716 9.20675C1.50716 9.18755 1.50716 9.16835 1.50716 9.14915C2.15542 9.52355 2.88702 9.73475 3.62788 9.75395C1.58125 8.33315 0.942258 5.50114 2.1832 3.28353C4.56322 6.31714 8.06378 8.15075 11.8237 8.35235C11.444 6.67234 11.9626 4.90594 13.1757 3.71553C15.0557 1.88193 18.0191 1.97793 19.7972 3.92673C20.8436 3.71553 21.8531 3.31233 22.7699 2.74593C22.418 3.86913 21.6864 4.81954 20.714 5.42434C21.6401 5.30914 22.5476 5.04994 23.3996 4.66594C22.7699 5.64514 21.9734 6.48994 21.0566 7.18114Z" fill="#12221A"/>
</svg>
